# Blender 3.6.2
# www.blender.org
mtllib Projectile1.mtl
o strila
v -0.032776 -0.045298 -2.205129
v -0.204921 0.000478 -2.582935
v -0.084257 -0.095683 -1.941786
v 0.000000 0.000000 0.387554
v 0.000000 0.205399 -2.582935
v 0.000000 0.000478 -3.123089
v -0.095683 -0.045876 -1.941786
v -0.084257 0.095683 -1.941786
v -0.000000 -0.106468 -2.275588
v 0.000000 -0.204443 -2.582935
v -0.039912 0.038926 -2.205129
v -0.095683 0.050706 -1.941786
v 0.204921 0.000478 -2.582935
v -0.089970 -0.089970 1.941786
v -0.000000 0.107424 -2.275588
v 0.000000 0.000000 1.906532
v -0.106946 0.000478 -2.275588
v 0.106946 0.000478 -2.275588
v -0.089970 0.089970 1.941786
v 0.047283 -0.039188 -2.205129
v 0.095683 -0.045876 -1.941786
v 0.084257 -0.095683 -1.941786
v 0.000000 0.000000 1.751598
v 0.095683 0.050706 -1.941786
v 0.047450 0.041659 -2.205129
v 0.084257 0.095683 -1.941786
v 0.089970 -0.089970 1.941786
v 0.089970 0.089970 1.941786
v 0.001349 0.084257 -2.205129
v -0.000000 0.085606 -2.174041
v -0.001349 0.084257 -2.205129
v -0.085128 0.000478 -2.185056
v -0.084257 0.001349 -2.205129
v -0.084257 -0.000393 -2.205129
v 0.084257 0.001349 -2.205129
v 0.085128 0.000478 -2.185057
v 0.084257 -0.000393 -2.205129
v 0.000393 -0.084257 -2.205129
v -0.000393 -0.084257 -2.205129
v -0.000000 -0.084650 -2.196072
v -0.063355 -0.069430 0.000000
v -0.055083 0.052732 0.000000
v 0.063355 -0.069430 0.000000
v 0.055083 0.052732 0.000000
v -0.059456 -0.073329 0.000000
v -0.051693 0.056122 0.000000
v 0.051693 0.056122 0.000000
v 0.059456 -0.073329 0.000000
v -0.094255 -0.085685 -0.970893
v -0.094255 0.085685 -0.970893
v 0.094255 -0.085685 -0.970893
v 0.094255 0.085685 -0.970893
v -0.034656 0.069313 0.756728
v 0.000000 0.062878 0.387554
v -0.088021 0.088247 1.842934
v -0.066610 0.069313 0.756728
v 0.088634 0.088789 1.874020
v 0.044123 0.088247 1.842934
v 0.066610 0.069313 0.756728
v 0.034656 0.069313 0.756728
v -0.044123 0.088247 1.842934
v 0.000000 0.088247 1.842934
v 0.000000 0.069313 0.756728
v 0.088431 -0.089131 1.843848
v 0.072268 -0.080317 0.815337
v 0.000000 -0.076651 0.387554
v 0.040158 -0.080317 0.815337
v 0.044565 -0.089131 1.843848
v 0.000000 -0.089131 1.843848
v 0.000000 -0.080317 0.815337
v -0.088915 -0.089395 1.874632
v -0.044565 -0.089131 1.843848
v -0.072268 -0.080317 0.815337
v -0.040158 -0.080317 0.815337
v -0.074355 -0.077919 0.802569
v -0.088704 -0.084791 1.871309
v -0.073790 -0.073790 0.780575
v -0.089050 -0.089260 1.874632
v -0.063688 0.000000 0.387554
v -0.067975 0.000000 0.717536
v -0.071005 -0.035502 0.765740
v -0.088193 0.088073 1.842878
v -0.088193 0.044097 1.842878
v -0.088193 0.000000 1.842878
v -0.068612 0.034306 0.752995
v -0.068612 0.067172 0.752995
v -0.068612 0.000000 0.752995
v -0.088193 -0.044097 1.842878
v 0.088753 0.088670 1.874020
v 0.068612 0.067172 0.752995
v 0.067813 0.067813 0.748740
v 0.089001 0.084166 1.871083
v 0.088620 0.044310 1.843320
v 0.088620 0.000000 1.843320
v 0.088620 -0.044310 1.843320
v 0.074075 -0.037037 0.782091
v 0.074075 -0.005229 0.782091
v 0.074075 -0.074075 0.782091
v 0.074355 -0.077919 0.802569
v 0.088620 -0.088620 1.843320
v 0.088625 -0.088932 1.843643
v 0.066120 0.000000 0.387554
v 0.071002 0.035501 0.765723
v 0.073680 0.000000 0.779990
v -0.088132 0.088132 1.842815
v -0.067813 0.067813 0.748740
vn -0.0000 0.9998 -0.0174
vn 1.0000 -0.0000 0.0015
vn -0.0000 -1.0000 -0.0086
vn -0.9998 0.0006 -0.0179
vn -0.9987 0.0490 -0.0143
vn -0.9492 -0.2178 -0.2272
vn -0.9473 0.2407 -0.2114
vn 0.9584 -0.2199 -0.1817
vn 0.9529 0.2421 -0.1828
vn 0.7069 0.7068 -0.0263
vn 0.7071 0.7071 0.0088
vn -0.2103 0.9716 -0.1084
vn 0.6591 0.7133 -0.2384
vn -0.9900 -0.0179 -0.1400
vn -0.6573 -0.7536 0.0042
vn -0.3648 -0.0000 0.9311
vn 0.3648 -0.0000 0.9311
vn 0.9931 -0.0009 -0.1175
vn -0.0000 0.3648 0.9311
vn -0.7070 -0.7070 -0.0172
vn -0.7071 -0.7071 0.0050
vn -0.0000 -0.3648 0.9311
vn 0.6450 -0.7642 0.0012
vn 0.0243 -0.9885 -0.1493
vn 0.3488 0.9371 0.0132
vn -0.9692 0.2462 -0.0074
vn -0.0000 -0.0000 1.0000
vn -0.0000 -0.0002 -1.0000
vn -0.0000 -0.0000 -1.0000
vn -0.6830 0.6830 -0.2591
vn -0.6898 -0.6898 0.2199
vn 0.6830 -0.6830 -0.2591
vn -0.6898 0.6898 0.2199
vn -0.6830 -0.6830 -0.2591
vn 0.6830 0.6830 -0.2591
vn -0.6979 0.6862 0.2050
vn 0.6898 0.6898 0.2199
vn 0.6898 -0.6898 0.2199
vn 0.6855 -0.6975 0.2089
vn 0.6979 0.6862 0.2050
vn -0.6855 -0.6975 0.2089
vn -0.9989 0.0281 0.0363
vn 0.9999 0.0006 -0.0138
vn 0.9987 0.0478 -0.0176
vn -1.0000 -0.0000 0.0015
vn -0.7068 0.7069 -0.0263
vn -0.7071 0.7071 0.0088
vn 0.7070 -0.7070 -0.0172
vn 0.7071 -0.7071 0.0050
vn -0.6450 -0.7642 0.0012
vn 0.9690 0.2462 0.0213
vn -0.8431 0.5373 -0.0206
vn -0.0000 -0.9999 0.0115
vn 0.9989 0.0281 0.0363
vn -0.0000 0.9998 0.0204
vn 0.9828 -0.0000 0.1845
vn -0.9828 -0.0000 0.1845
vn -0.4174 0.4179 -0.8070
vn -0.0000 0.9828 0.1845
vn -0.0000 -0.9828 0.1845
vn -1.0000 -0.0000 -0.0000
vn 0.9956 -0.0000 0.0935
vn 1.0000 -0.0000 -0.0000
vn -0.9956 -0.0000 0.0935
vn 0.4938 0.4938 -0.7157
vn -0.0000 0.7192 -0.6948
vn -0.0000 -0.7192 -0.6948
vn 0.4152 -0.4200 -0.8070
vn 0.7192 -0.0000 -0.6948
vn -0.4938 -0.4938 -0.7157
vn -0.7192 -0.0000 -0.6948
vn -0.0000 1.0000 -0.0000
vn -0.0000 -0.9956 0.0935
vn -0.0000 0.9956 0.0935
vt 0.738280 0.903842
vt 0.740810 0.906157
vt 0.503904 0.906144
vt 0.505688 0.904557
vt 0.564301 0.903832
vt 0.622393 0.903835
vt 0.680485 0.903839
vt 0.676753 0.423629
vt 0.676755 0.381560
vt 0.694478 0.401478
vt 0.694470 0.537594
vt 0.676746 0.556954
vt 0.676748 0.514885
vt 0.685397 0.469393
vt 0.676750 0.469257
vt 0.490739 0.671123
vt 0.265112 0.671123
vt 0.317526 0.669242
vt 0.444687 0.669242
vt 0.505967 0.670301
vt 0.503904 0.669242
vt 0.740810 0.669255
vt 0.739445 0.669981
vt 0.681067 0.670310
vt 0.622393 0.670307
vt 0.563719 0.670304
vt 0.780725 0.581362
vt 0.885454 0.697730
vt 0.890388 0.716389
vt 0.862108 0.684965
vt 0.830071 0.642455
vt 0.826739 0.645666
vt 0.791370 0.606366
vt 0.763090 0.574943
vt 0.739622 0.670158
vt 0.738506 0.903613
vt 0.738506 0.845715
vt 0.738506 0.787659
vt 0.738506 0.729603
vt 0.739168 0.676040
vt 0.675038 0.529470
vt 0.676746 0.572707
vt 0.658461 0.554046
vt 0.662996 0.392909
vt 0.676746 0.381560
vt 0.676224 0.387011
vt 0.674555 0.437517
vt 0.666906 0.484418
vt 0.672430 0.484356
vt 0.673256 0.484340
vt 0.169224 0.735461
vt 0.236905 0.669254
vt 0.251950 0.734829
vt 0.178619 0.846348
vt 0.251950 0.861985
vt 0.236905 0.921200
vt 0.000000 0.734815
vt 0.015044 0.669242
vt 0.063820 0.743500
vt 0.000000 0.861972
vt 0.063600 0.849940
vt 0.015044 0.921188
vt 0.505532 0.904402
vt 0.451815 0.727160
vt 0.469181 0.707521
vt 0.467207 0.705937
vt 0.466363 0.704885
vt 0.447352 0.722697
vt 0.126060 0.907817
vt 0.127848 0.906026
vt 0.124296 0.906026
vt 0.238142 0.795742
vt 0.237002 0.796879
vt 0.651564 0.270030
vt 0.649942 0.270030
vt 0.560209 0.263908
vt 0.763090 0.236910
vt 0.763090 0.000000
vt 0.881545 0.118455
vt 1.000000 -0.000000
vt 1.000000 0.236910
vt 0.013987 0.795730
vt 0.015141 0.796867
vt 0.015141 0.794574
vt 0.286513 0.878633
vt 0.265112 0.919316
vt 0.281379 0.873499
vt 0.272178 0.890368
vt 0.275335 0.893116
vt 0.281379 0.716940
vt 0.251950 0.684287
vt 0.125554 0.684168
vt 0.126589 0.684168
vt 0.126068 0.683655
vt 0.451815 0.863279
vt 0.503904 0.906152
vt 0.490739 0.919316
vt 0.249711 0.908495
vt 0.493792 0.270030
vt 0.645263 0.192141
vt 0.651564 0.114038
vt 0.651564 0.268408
vt 0.381535 0.381560
vt 0.000000 0.381555
vt 0.191088 0.190741
vt 0.763090 0.381555
vt 0.381535 0.381555
vt 0.472748 0.290342
vt 0.671876 0.290342
vt -0.000000 0.000000
vt 0.381535 0.000005
vt 0.763090 0.000000
vt 0.671876 0.091214
vt 0.651564 0.111526
vt 0.381535 -0.000000
vt 0.472748 0.091214
vt 0.493060 0.269298
vt 0.493060 0.270030
vt 0.493060 0.111526
vt 0.493060 0.113147
vt 0.494682 0.111526
vt 0.649052 0.111526
vt 0.447352 0.867743
vt 0.505711 0.670563
vt 0.505717 0.670973
vt 0.505717 0.729310
vt 0.505717 0.787647
vt 0.505717 0.845984
vt 0.505206 0.898470
vt 0.561574 0.483911
vt 0.561574 0.477009
vt 0.564730 0.435250
vt 0.568404 0.386626
vt 0.568409 0.381560
vt 0.582332 0.393442
vt 0.581070 0.554639
vt 0.561574 0.572587
vt 0.561574 0.530777
vt 0.571657 0.484488
vt 0.444687 0.921197
vt 0.317526 0.921197
vt 0.738426 0.903690
vt 0.466363 0.885554
vt 0.467207 0.884503
vt 0.469181 0.882919
vt 0.286513 0.711806
vt 0.275334 0.697323
vt 0.272178 0.700071
vt 0.251950 0.906152
vt 0.503904 0.684287
vt 0.711226 0.381560
vt 0.747843 0.438468
vt 0.701308 0.438468
vt 0.423091 0.885554
vt 0.377924 0.795220
vt 0.424664 0.701739
vt 0.622427 0.787610
vt 0.272178 0.742347
vt 0.280397 0.697692
vt 0.469181 0.840848
vt 0.469181 0.749591
vt 0.460709 0.795220
vt 0.469181 0.795220
vt 0.280771 0.892372
vt 0.272178 0.848092
vt 0.905078 0.574943
vt 0.277006 0.795220
vt 0.329160 0.697692
vt 0.658461 0.491053
vt 0.701308 0.382563
vt 0.694478 0.479330
vt 0.694478 0.381560
vt 0.377924 0.708166
vt 0.331181 0.888705
vt 0.377924 0.879072
vt 0.377924 0.885554
s 0
usemtl Матеріал.002
f 55/1/1 19/2/1 28/3/1 57/4/1 58/5/1 62/6/1 61/7/1
f 60/8/1 59/9/1 47/10/1 46/11/1 56/12/1 53/13/1 54/14/1 63/15/1
f 52/16/2 51/17/2 21/18/2 24/19/2
f 64/20/3 27/21/3 14/22/3 71/23/3 72/24/3 69/25/3 68/26/3
f 45/27/3 48/28/3 65/29/3 67/30/3 66/31/3 70/32/3 74/33/3 73/34/3
f 78/35/4 14/22/4 19/2/4 82/36/4 83/37/4 84/38/4 88/39/4 76/40/4
f 85/41/5 86/42/5 42/43/5 41/44/5 75/45/5 77/46/5 81/47/5 79/48/5 80/49/5 87/50/5
f 28/3/10 89/63/10 57/4/10
f 47/64/11 59/65/11 91/66/11 90/67/11 44/68/11 52/16/11
f 27/77/16 28/78/16 16/79/16
f 16/79/17 19/80/17 14/81/17
f 27/77/19 16/79/19 14/81/19
f 14/22/20 78/35/20 71/23/20
f 41/85/21 49/86/21 45/87/21 73/88/21 75/89/21
f 16/79/22 28/78/22 19/80/22
f 48/90/23 22/91/23 21/18/23 51/17/23
f 46/95/25 8/96/25 50/97/25
f 8/56/26 12/55/26 50/98/26
f 50/97/42 49/86/42 41/85/42 42/123/42
f 28/3/43 27/21/43 101/124/43 100/125/43 95/126/43 94/127/43 93/128/43 92/129/43 89/63/43
f 104/130/44 97/131/44 96/132/44 98/133/44 99/134/44 43/135/44 44/136/44 90/137/44 103/138/44 102/139/44
f 12/140/45 7/141/45 49/86/45 50/97/45
f 19/2/46 55/1/46 105/142/46 82/36/46
f 46/95/47 50/97/47 42/123/47 86/143/47 106/144/47 56/145/47
f 101/124/48 27/21/48 64/20/48
f 48/90/49 51/17/49 43/146/49 99/147/49 65/148/49
f 3/149/50 45/87/50 49/86/50 7/141/50
f 26/150/51 47/64/51 24/19/51
f 47/151/52 52/152/52 24/153/52
f 3/149/53 22/91/53 48/90/53 45/87/53
f 44/68/54 43/146/54 51/17/54 52/16/54
f 26/150/55 8/96/55 46/95/55 47/64/55
f 106/144/56 86/143/56 85/154/56 4/155/56
f 90/67/57 91/66/57 4/155/57 103/156/57
f 55/1/58 61/7/58 23/157/58 83/37/58 82/36/58 105/142/58
f 4/155/59 67/158/59 65/148/59 99/147/59 98/159/59
f 4/155/60 53/160/60 56/145/60 106/144/60
f 59/65/60 60/161/60 4/155/60 91/66/60
f 54/162/61 4/155/61 63/163/61
f 53/160/62 4/155/62 54/162/62
f 77/164/59 75/89/59 73/88/59 74/165/59 4/155/59
f 4/166/63 70/32/63 66/31/63
f 4/155/64 66/167/64 67/158/64
f 58/5/65 57/4/65 89/63/65 92/129/65 93/128/65 23/157/65
f 62/6/66 58/5/66 23/157/66
f 61/7/66 62/6/66 23/157/66
f 69/25/67 72/24/67 23/157/67
f 23/157/67 68/26/67 69/25/67
f 101/124/68 64/20/68 68/26/68 23/157/68 95/126/68 100/125/68
f 95/126/69 23/157/69 94/127/69
f 94/127/69 23/157/69 93/128/69
f 72/24/70 71/23/70 78/35/70 76/40/70 88/39/70 23/157/70
f 23/157/71 88/39/71 84/38/71
f 23/157/71 84/38/71 83/37/71
f 98/159/57 96/168/57 4/155/57
f 102/139/72 4/169/72 104/130/72
f 104/170/57 4/171/57 97/172/57
f 102/173/73 103/156/73 4/155/73
f 4/155/56 81/174/56 77/164/56
f 4/155/74 79/175/74 81/174/74
f 4/155/56 85/154/56 87/176/56
usemtl Матеріал.003
f 1/51/6 3/52/6 7/53/6
f 11/54/7 12/55/7 8/56/7
f 21/57/8 22/58/8 20/59/8
f 24/60/9 25/61/9 26/62/9
f 30/69/12 31/70/12 11/54/12 8/56/12 26/62/12 29/71/12
f 26/62/13 25/61/13 29/71/13
f 32/72/14 1/51/14 7/53/14 12/55/14 11/54/14 33/73/14
f 32/74/15 34/75/15 1/76/15
f 36/82/18 35/83/18 25/61/18 24/60/18 21/57/18 20/59/18 37/84/18
f 38/92/24 20/59/24 22/58/24 3/52/24 1/51/24 39/93/24 40/94/24
f 39/99/27 1/76/27 34/75/27
f 20/59/28 38/92/28 37/84/28
f 29/71/29 25/61/29 35/83/29
f 11/100/27 31/101/27 33/102/27
f 2/103/30 5/104/30 6/105/30
f 2/106/31 10/107/31 9/108/31 17/109/31
f 6/105/32 13/110/32 10/111/32
f 5/112/33 2/106/33 17/109/33 15/113/33
f 6/105/34 10/111/34 2/103/34
f 6/105/35 5/104/35 13/110/35
f 31/101/36 30/114/36 15/113/36 17/109/36 32/74/36 33/102/36
f 13/115/37 5/112/37 15/113/37 18/116/37
f 10/107/38 13/115/38 18/116/38 9/108/38
f 38/117/39 40/118/39 9/108/39 18/116/39 36/119/39 37/120/39
f 35/121/40 36/119/40 18/116/40 15/113/40 30/114/40 29/122/40
f 34/75/41 32/74/41 17/109/41 9/108/41 40/118/41 39/99/41
o pirya
v -0.449536 -0.000357 1.969346
v 0.000000 0.449179 1.969346
v 0.002716 -0.003073 0.276307
v 0.000000 -0.449893 1.969346
v 0.449536 -0.000357 1.969346
v -0.337152 -0.112741 1.969346
v 0.000000 -0.000357 1.887097
v -0.112384 -0.337509 1.969346
v 0.337152 0.112027 1.969346
v 0.112384 0.336795 1.969346
v -0.337152 0.112027 1.969346
v -0.112384 0.336795 1.969346
v 0.337152 -0.112741 1.969346
v 0.112384 -0.337509 1.969346
vn -0.6947 0.6947 -0.1867
vn 0.6952 -0.6952 -0.1824
vn -0.0000 -0.1800 0.9837
vn -0.6950 -0.6950 -0.1845
vn 0.6950 0.6950 -0.1845
vn -0.3158 0.9488 -0.0021
vn 0.9485 -0.3167 0.0021
vn 0.3167 -0.9485 0.0021
vn -0.9488 0.3158 -0.0021
vn -0.1800 -0.0000 0.9837
vn -0.0000 0.1800 0.9837
vn 0.1800 -0.0000 0.9837
vn 0.9486 0.3165 0.0011
vn -0.3165 -0.9486 0.0011
vn 0.3160 0.9488 -0.0011
vn -0.9488 -0.3160 -0.0011
vt 0.288340 0.581809
vt 0.291092 0.553033
vt 0.561574 0.668136
vt 0.000000 0.381560
vt 0.280082 0.381560
vt 0.277365 0.410210
vt 0.932106 0.405927
vt 0.791259 0.405927
vt 0.763090 0.349588
vt 0.819429 0.321418
vt 0.269214 0.496160
vt 0.230246 0.539430
vt 0.330523 0.510164
vt 0.409384 0.424428
vt 0.448815 0.381560
vt 0.373979 0.531860
vt 0.152310 0.625972
vt 0.113343 0.669242
vt 0.187110 0.518464
vt 0.819429 0.574943
vt 0.763090 0.546774
vt 0.791259 0.490435
vt 0.932106 0.490435
vt 0.932106 0.265080
vt 0.903937 0.321418
vt 0.763090 0.321418
vt 0.875767 0.236910
vt 0.903937 0.490435
vt 0.763090 0.490435
vt 0.875767 0.405926
vt 0.932106 0.434096
vt 0.271931 0.467510
vt 0.440557 0.467888
vt 0.280082 0.668136
vt 0.282835 0.639360
vt 0.121493 0.583292
s 0
usemtl Матеріал
f 118/177/75 108/178/75 109/179/75
f 109/180/76 111/181/76 119/182/76
f 113/183/77 116/184/77 108/185/77 118/186/77
f 109/180/78 110/187/78 114/188/78
f 109/179/79 108/178/79 116/189/79
f 109/179/79 115/190/79 111/191/79
f 109/179/80 113/192/80 115/190/80
f 109/179/81 116/189/81 113/192/81
f 109/180/78 112/193/78 107/194/78
f 109/180/82 113/195/82 112/193/82
f 109/180/83 114/188/83 113/195/83
f 119/196/84 111/197/84 115/198/84 113/199/84
f 110/200/85 120/201/85 113/202/85 114/203/85
f 112/204/86 113/205/86 117/206/86 107/207/86
f 109/180/76 120/208/76 110/187/76
f 109/179/87 113/192/87 120/209/87
f 109/180/88 119/182/88 113/195/88
f 107/210/75 117/211/75 109/179/75
f 117/211/89 113/192/89 109/179/89
f 113/195/90 118/212/90 109/180/90
